%TF.GenerationSoftware,KiCad,Pcbnew,8.0.7*%
%TF.CreationDate,2025-05-16T17:44:10-04:00*%
%TF.ProjectId,SurperCapSurfer,53757270-6572-4436-9170-537572666572,rev?*%
%TF.SameCoordinates,Original*%
%TF.FileFunction,Copper,L1,Top*%
%TF.FilePolarity,Positive*%
%FSLAX46Y46*%
G04 Gerber Fmt 4.6, Leading zero omitted, Abs format (unit mm)*
G04 Created by KiCad (PCBNEW 8.0.7) date 2025-05-16 17:44:10*
%MOMM*%
%LPD*%
G01*
G04 APERTURE LIST*
G04 Aperture macros list*
%AMRoundRect*
0 Rectangle with rounded corners*
0 $1 Rounding radius*
0 $2 $3 $4 $5 $6 $7 $8 $9 X,Y pos of 4 corners*
0 Add a 4 corners polygon primitive as box body*
4,1,4,$2,$3,$4,$5,$6,$7,$8,$9,$2,$3,0*
0 Add four circle primitives for the rounded corners*
1,1,$1+$1,$2,$3*
1,1,$1+$1,$4,$5*
1,1,$1+$1,$6,$7*
1,1,$1+$1,$8,$9*
0 Add four rect primitives between the rounded corners*
20,1,$1+$1,$2,$3,$4,$5,0*
20,1,$1+$1,$4,$5,$6,$7,0*
20,1,$1+$1,$6,$7,$8,$9,0*
20,1,$1+$1,$8,$9,$2,$3,0*%
G04 Aperture macros list end*
%TA.AperFunction,SMDPad,CuDef*%
%ADD10RoundRect,0.250000X0.600000X0.600000X-0.600000X0.600000X-0.600000X-0.600000X0.600000X-0.600000X0*%
%TD*%
%TA.AperFunction,SMDPad,CuDef*%
%ADD11O,1.700000X1.700000*%
%TD*%
%TA.AperFunction,SMDPad,CuDef*%
%ADD12O,4.000000X1.500000*%
%TD*%
%TA.AperFunction,SMDPad,CuDef*%
%ADD13RoundRect,0.250000X-1.750000X0.500000X-1.750000X-0.500000X1.750000X-0.500000X1.750000X0.500000X0*%
%TD*%
%TA.AperFunction,SMDPad,CuDef*%
%ADD14RoundRect,0.225000X-0.375000X0.225000X-0.375000X-0.225000X0.375000X-0.225000X0.375000X0.225000X0*%
%TD*%
%TA.AperFunction,ComponentPad*%
%ADD15R,1.600000X1.600000*%
%TD*%
%TA.AperFunction,ComponentPad*%
%ADD16C,1.600000*%
%TD*%
%TA.AperFunction,Conductor*%
%ADD17C,0.500000*%
%TD*%
G04 APERTURE END LIST*
D10*
%TO.P,J1,1,Pin_1*%
%TO.N,GND*%
X135500000Y-99500000D03*
D11*
%TO.P,J1,2,Pin_2*%
%TO.N,+2V5*%
X135500000Y-96960000D03*
%TD*%
D12*
%TO.P,M1,1,+*%
%TO.N,+2V5*%
X149750000Y-96000000D03*
D13*
%TO.P,M1,2,-*%
%TO.N,GND*%
X149750000Y-98000000D03*
%TD*%
D14*
%TO.P,D1,1,K*%
%TO.N,+2V5*%
X145500000Y-95350000D03*
%TO.P,D1,2,A*%
%TO.N,GND*%
X145500000Y-98650000D03*
%TD*%
D15*
%TO.P,C1,1*%
%TO.N,+2V5*%
X140750000Y-95500000D03*
D16*
%TO.P,C1,2*%
%TO.N,GND*%
X140750000Y-98000000D03*
%TD*%
D17*
%TO.N,+2V5*%
X145500000Y-95350000D02*
X146537500Y-95350000D01*
X146537500Y-95350000D02*
X147187500Y-96000000D01*
X147187500Y-96000000D02*
X149750000Y-96000000D01*
%TO.N,GND*%
X145500000Y-98650000D02*
X146600000Y-98650000D01*
X146600000Y-98650000D02*
X147250000Y-98000000D01*
X147250000Y-98000000D02*
X149750000Y-98000000D01*
X142250000Y-98000000D02*
X142900000Y-98650000D01*
%TO.N,+2V5*%
X145350000Y-95500000D02*
X145500000Y-95350000D01*
X140750000Y-95500000D02*
X145350000Y-95500000D01*
%TO.N,GND*%
X140750000Y-98000000D02*
X142250000Y-98000000D01*
X142900000Y-98650000D02*
X145500000Y-98650000D01*
%TO.N,+2V5*%
X137040000Y-96960000D02*
X138500000Y-95500000D01*
%TO.N,GND*%
X138500000Y-98000000D02*
X140750000Y-98000000D01*
%TO.N,+2V5*%
X138500000Y-95500000D02*
X140750000Y-95500000D01*
%TO.N,GND*%
X137000000Y-99500000D02*
X138500000Y-98000000D01*
X135500000Y-99500000D02*
X137000000Y-99500000D01*
%TO.N,+2V5*%
X135500000Y-96960000D02*
X137040000Y-96960000D01*
%TO.N,GND*%
X140250000Y-98000000D02*
X140750000Y-98000000D01*
%TD*%
%TA.AperFunction,NonConductor*%
G36*
X146345285Y-96222500D02*
G01*
X146364009Y-96237877D01*
X146709084Y-96582952D01*
X146709090Y-96582957D01*
X146741341Y-96604505D01*
X146741343Y-96604506D01*
X146832005Y-96665084D01*
X146968587Y-96721658D01*
X146968591Y-96721658D01*
X146968592Y-96721659D01*
X147113579Y-96750500D01*
X147113582Y-96750500D01*
X147113583Y-96750500D01*
X147261418Y-96750500D01*
X147388769Y-96750500D01*
X147455808Y-96770185D01*
X147501563Y-96822989D01*
X147511507Y-96892147D01*
X147482482Y-96955703D01*
X147476451Y-96962181D01*
X147407287Y-97031345D01*
X147311395Y-97186813D01*
X147309600Y-97185706D01*
X147270313Y-97230337D01*
X147204092Y-97249500D01*
X147176080Y-97249500D01*
X147031092Y-97278340D01*
X147031082Y-97278343D01*
X146894508Y-97334914D01*
X146894505Y-97334915D01*
X146894505Y-97334916D01*
X146848288Y-97365797D01*
X146848287Y-97365796D01*
X146771585Y-97417046D01*
X146771578Y-97417052D01*
X146402665Y-97785966D01*
X146341342Y-97819451D01*
X146271650Y-97814467D01*
X146249887Y-97803824D01*
X146183699Y-97762998D01*
X146183694Y-97762996D01*
X146022709Y-97709651D01*
X145923346Y-97699500D01*
X145076662Y-97699500D01*
X145076644Y-97699501D01*
X144977292Y-97709650D01*
X144977289Y-97709651D01*
X144816305Y-97762996D01*
X144816294Y-97763001D01*
X144671959Y-97852029D01*
X144671955Y-97852032D01*
X144660807Y-97863181D01*
X144599484Y-97896666D01*
X144573126Y-97899500D01*
X143262230Y-97899500D01*
X143195191Y-97879815D01*
X143174549Y-97863181D01*
X142728421Y-97417052D01*
X142728414Y-97417046D01*
X142651811Y-97365862D01*
X142651712Y-97365797D01*
X142605495Y-97334916D01*
X142605494Y-97334915D01*
X142605492Y-97334914D01*
X142468917Y-97278343D01*
X142468907Y-97278340D01*
X142323920Y-97249500D01*
X142323918Y-97249500D01*
X141876663Y-97249500D01*
X141809624Y-97229815D01*
X141775088Y-97196623D01*
X141750045Y-97160858D01*
X141592913Y-97003726D01*
X141559428Y-96942403D01*
X141564412Y-96872711D01*
X141606284Y-96816778D01*
X141652078Y-96795368D01*
X141657480Y-96794091D01*
X141657483Y-96794091D01*
X141792331Y-96743796D01*
X141907546Y-96657546D01*
X141993796Y-96542331D01*
X142044091Y-96407483D01*
X142049062Y-96361242D01*
X142075799Y-96296694D01*
X142133191Y-96256846D01*
X142172351Y-96250500D01*
X144837025Y-96250500D01*
X144876029Y-96256794D01*
X144977292Y-96290349D01*
X145076655Y-96300500D01*
X145923344Y-96300499D01*
X145923352Y-96300498D01*
X145923355Y-96300498D01*
X145998459Y-96292826D01*
X146022708Y-96290349D01*
X146183697Y-96237003D01*
X146183699Y-96237001D01*
X146183701Y-96237001D01*
X146211229Y-96220021D01*
X146278621Y-96201579D01*
X146345285Y-96222500D01*
G37*
%TD.AperFunction*%
%TA.AperFunction,NonConductor*%
G36*
X139394688Y-96270185D02*
G01*
X139440443Y-96322989D01*
X139450939Y-96361248D01*
X139455908Y-96407483D01*
X139506202Y-96542328D01*
X139506206Y-96542335D01*
X139592452Y-96657544D01*
X139592455Y-96657547D01*
X139707664Y-96743793D01*
X139707671Y-96743797D01*
X139725643Y-96750500D01*
X139842517Y-96794091D01*
X139842527Y-96794092D01*
X139847913Y-96795365D01*
X139908631Y-96829935D01*
X139941021Y-96891843D01*
X139934799Y-96961435D01*
X139907088Y-97003725D01*
X139749951Y-97160862D01*
X139724912Y-97196623D01*
X139670335Y-97240248D01*
X139623337Y-97249500D01*
X138426080Y-97249500D01*
X138281092Y-97278340D01*
X138281082Y-97278343D01*
X138144511Y-97334912D01*
X138144498Y-97334919D01*
X138021584Y-97417048D01*
X138021580Y-97417051D01*
X136923612Y-98515019D01*
X136862289Y-98548504D01*
X136792597Y-98543520D01*
X136736664Y-98501648D01*
X136730392Y-98492434D01*
X136711081Y-98461126D01*
X136692712Y-98431344D01*
X136568656Y-98307288D01*
X136419334Y-98215186D01*
X136410733Y-98212336D01*
X136353290Y-98172564D01*
X136326467Y-98108048D01*
X136338782Y-98039272D01*
X136367767Y-98002517D01*
X136367573Y-98002323D01*
X136369219Y-98000676D01*
X136370040Y-97999636D01*
X136371388Y-97998504D01*
X136371401Y-97998495D01*
X136538495Y-97831401D01*
X136586127Y-97763376D01*
X136640704Y-97719751D01*
X136687701Y-97710500D01*
X137113920Y-97710500D01*
X137211462Y-97691096D01*
X137258913Y-97681658D01*
X137395495Y-97625084D01*
X137444729Y-97592186D01*
X137518416Y-97542952D01*
X138774549Y-96286819D01*
X138835872Y-96253334D01*
X138862230Y-96250500D01*
X139327649Y-96250500D01*
X139394688Y-96270185D01*
G37*
%TD.AperFunction*%
%TA.AperFunction,NonConductor*%
G36*
X135202368Y-93520185D02*
G01*
X135248123Y-93572989D01*
X135258067Y-93642147D01*
X135229042Y-93705703D01*
X135182782Y-93739061D01*
X135144507Y-93754914D01*
X135144498Y-93754919D01*
X135021584Y-93837048D01*
X135021580Y-93837051D01*
X134917051Y-93941580D01*
X134917048Y-93941584D01*
X134834919Y-94064498D01*
X134834912Y-94064511D01*
X134778343Y-94201082D01*
X134778340Y-94201092D01*
X134749500Y-94346079D01*
X134749500Y-94346082D01*
X134749500Y-94493918D01*
X134749500Y-94493920D01*
X134749499Y-94493920D01*
X134778340Y-94638907D01*
X134778343Y-94638917D01*
X134834912Y-94775488D01*
X134834919Y-94775501D01*
X134917048Y-94898415D01*
X134917051Y-94898419D01*
X135021580Y-95002948D01*
X135021584Y-95002951D01*
X135144498Y-95085080D01*
X135144511Y-95085087D01*
X135281082Y-95141656D01*
X135281087Y-95141658D01*
X135281091Y-95141658D01*
X135281092Y-95141659D01*
X135426079Y-95170500D01*
X135426082Y-95170500D01*
X135573920Y-95170500D01*
X135671462Y-95151096D01*
X135718913Y-95141658D01*
X135855495Y-95085084D01*
X135978416Y-95002951D01*
X136082951Y-94898416D01*
X136165084Y-94775495D01*
X136221658Y-94638913D01*
X136233414Y-94579815D01*
X136250500Y-94493920D01*
X136250500Y-94346079D01*
X136221659Y-94201092D01*
X136221658Y-94201091D01*
X136221658Y-94201087D01*
X136188815Y-94121796D01*
X136165087Y-94064511D01*
X136165080Y-94064498D01*
X136082951Y-93941584D01*
X136082948Y-93941580D01*
X135978419Y-93837051D01*
X135978415Y-93837048D01*
X135855501Y-93754919D01*
X135855492Y-93754914D01*
X135817218Y-93739061D01*
X135762815Y-93695220D01*
X135740750Y-93628926D01*
X135758029Y-93561227D01*
X135809166Y-93513616D01*
X135864671Y-93500500D01*
X149434108Y-93500500D01*
X149496754Y-93500500D01*
X149503244Y-93500670D01*
X149859310Y-93519331D01*
X149872217Y-93520688D01*
X150026314Y-93545094D01*
X150221165Y-93575954D01*
X150233852Y-93578650D01*
X150575134Y-93670097D01*
X150587468Y-93674105D01*
X150917318Y-93800723D01*
X150929154Y-93805992D01*
X151243977Y-93966402D01*
X151255183Y-93972872D01*
X151551511Y-94165310D01*
X151562001Y-94172932D01*
X151836576Y-94395278D01*
X151846221Y-94403963D01*
X152096036Y-94653778D01*
X152104721Y-94663423D01*
X152327067Y-94937998D01*
X152334692Y-94948492D01*
X152527123Y-95244810D01*
X152533600Y-95256029D01*
X152689051Y-95561118D01*
X152694002Y-95570835D01*
X152699281Y-95582692D01*
X152825892Y-95912526D01*
X152829903Y-95924870D01*
X152921347Y-96266141D01*
X152924045Y-96278838D01*
X152979311Y-96627782D01*
X152980668Y-96640689D01*
X152999159Y-96993510D01*
X152999159Y-97006490D01*
X152980668Y-97359310D01*
X152979311Y-97372217D01*
X152924045Y-97721161D01*
X152921347Y-97733858D01*
X152829903Y-98075129D01*
X152825892Y-98087473D01*
X152699281Y-98417307D01*
X152694002Y-98429164D01*
X152533604Y-98743964D01*
X152527118Y-98755197D01*
X152472606Y-98839139D01*
X152334696Y-99051501D01*
X152327067Y-99062001D01*
X152319757Y-99071028D01*
X152262269Y-99110739D01*
X152256144Y-99110943D01*
X152245609Y-99159379D01*
X152233142Y-99177989D01*
X152104721Y-99336576D01*
X152096036Y-99346221D01*
X151846221Y-99596036D01*
X151836576Y-99604721D01*
X151562001Y-99827067D01*
X151551501Y-99834696D01*
X151462232Y-99892668D01*
X151255197Y-100027118D01*
X151243964Y-100033604D01*
X150929164Y-100194002D01*
X150917307Y-100199281D01*
X150587473Y-100325892D01*
X150575129Y-100329903D01*
X150233858Y-100421347D01*
X150221161Y-100424045D01*
X149872217Y-100479311D01*
X149859310Y-100480668D01*
X149503244Y-100499330D01*
X149496754Y-100499500D01*
X136929970Y-100499500D01*
X136862931Y-100479815D01*
X136817176Y-100427011D01*
X136807232Y-100357853D01*
X136812251Y-100336535D01*
X136812582Y-100335535D01*
X136852336Y-100278077D01*
X136916843Y-100251233D01*
X136930301Y-100250500D01*
X137073920Y-100250500D01*
X137171462Y-100231096D01*
X137218913Y-100221658D01*
X137355495Y-100165084D01*
X137404729Y-100132186D01*
X137478416Y-100082952D01*
X138774548Y-98786818D01*
X138835871Y-98753334D01*
X138862229Y-98750500D01*
X139623337Y-98750500D01*
X139690376Y-98770185D01*
X139724912Y-98803377D01*
X139749954Y-98839141D01*
X139910858Y-99000045D01*
X139910861Y-99000047D01*
X140097266Y-99130568D01*
X140303504Y-99226739D01*
X140303509Y-99226740D01*
X140303511Y-99226741D01*
X140352991Y-99239999D01*
X140523308Y-99285635D01*
X140685230Y-99299801D01*
X140749998Y-99305468D01*
X140750000Y-99305468D01*
X140750002Y-99305468D01*
X140806673Y-99300509D01*
X140976692Y-99285635D01*
X141196496Y-99226739D01*
X141402734Y-99130568D01*
X141589139Y-99000047D01*
X141750047Y-98839139D01*
X141775088Y-98803377D01*
X141829665Y-98759752D01*
X141876663Y-98750500D01*
X141887770Y-98750500D01*
X141954809Y-98770185D01*
X141975451Y-98786819D01*
X142421586Y-99232954D01*
X142447844Y-99250498D01*
X142493625Y-99281087D01*
X142544505Y-99315084D01*
X142544507Y-99315085D01*
X142544511Y-99315087D01*
X142681082Y-99371656D01*
X142681087Y-99371658D01*
X142681091Y-99371658D01*
X142681092Y-99371659D01*
X142826079Y-99400500D01*
X142826082Y-99400500D01*
X142826083Y-99400500D01*
X142973918Y-99400500D01*
X144573126Y-99400500D01*
X144640165Y-99420185D01*
X144660807Y-99436819D01*
X144671955Y-99447967D01*
X144671959Y-99447970D01*
X144816294Y-99536998D01*
X144816297Y-99536999D01*
X144816303Y-99537003D01*
X144977292Y-99590349D01*
X145076655Y-99600500D01*
X145923344Y-99600499D01*
X145923352Y-99600498D01*
X145923355Y-99600498D01*
X145977760Y-99594940D01*
X146022708Y-99590349D01*
X146183697Y-99537003D01*
X146328044Y-99447968D01*
X146339193Y-99436819D01*
X146400516Y-99403334D01*
X146426874Y-99400500D01*
X146673920Y-99400500D01*
X146771462Y-99381096D01*
X146818913Y-99371658D01*
X146955495Y-99315084D01*
X147006375Y-99281087D01*
X147078416Y-99232952D01*
X147287322Y-99024045D01*
X147348640Y-98990563D01*
X147418332Y-98995547D01*
X147462680Y-99024048D01*
X147531344Y-99092712D01*
X147680666Y-99184814D01*
X147847203Y-99239999D01*
X147949991Y-99250500D01*
X151550008Y-99250499D01*
X151652797Y-99239999D01*
X151819334Y-99184814D01*
X151968656Y-99092712D01*
X152049098Y-99012269D01*
X152104929Y-98981783D01*
X152108943Y-98945266D01*
X152117853Y-98927895D01*
X152165910Y-98849983D01*
X152184814Y-98819334D01*
X152239999Y-98652797D01*
X152250500Y-98550009D01*
X152250499Y-97449992D01*
X152247809Y-97423663D01*
X152239999Y-97347203D01*
X152239998Y-97347200D01*
X152217181Y-97278343D01*
X152184814Y-97180666D01*
X152092712Y-97031344D01*
X151995970Y-96934602D01*
X151962485Y-96873279D01*
X151967469Y-96803587D01*
X151983330Y-96774039D01*
X152069524Y-96655405D01*
X152158884Y-96480025D01*
X152219709Y-96292826D01*
X152221397Y-96282169D01*
X152250500Y-96098422D01*
X152250500Y-95901577D01*
X152219709Y-95707173D01*
X152177291Y-95576625D01*
X152158884Y-95519975D01*
X152158882Y-95519972D01*
X152158882Y-95519970D01*
X152069523Y-95344594D01*
X151953828Y-95185354D01*
X151814646Y-95046172D01*
X151655405Y-94930476D01*
X151629043Y-94917044D01*
X151480029Y-94841117D01*
X151292826Y-94780290D01*
X151098422Y-94749500D01*
X151098417Y-94749500D01*
X148401583Y-94749500D01*
X148401578Y-94749500D01*
X148207173Y-94780290D01*
X148019970Y-94841117D01*
X147844594Y-94930476D01*
X147685355Y-95046171D01*
X147577878Y-95153648D01*
X147516555Y-95187132D01*
X147446863Y-95182148D01*
X147402516Y-95153647D01*
X147015921Y-94767052D01*
X147015914Y-94767046D01*
X146942229Y-94717812D01*
X146942229Y-94717813D01*
X146892991Y-94684913D01*
X146756417Y-94628343D01*
X146756407Y-94628340D01*
X146611420Y-94599500D01*
X146611418Y-94599500D01*
X146426874Y-94599500D01*
X146359835Y-94579815D01*
X146339193Y-94563181D01*
X146328044Y-94552032D01*
X146328040Y-94552029D01*
X146183705Y-94463001D01*
X146183699Y-94462998D01*
X146183697Y-94462997D01*
X146156199Y-94453885D01*
X146022709Y-94409651D01*
X145923346Y-94399500D01*
X145076662Y-94399500D01*
X145076644Y-94399501D01*
X144977292Y-94409650D01*
X144977289Y-94409651D01*
X144816305Y-94462996D01*
X144816294Y-94463001D01*
X144671959Y-94552029D01*
X144671955Y-94552032D01*
X144552031Y-94671956D01*
X144540535Y-94690596D01*
X144488588Y-94737321D01*
X144434996Y-94749500D01*
X142172351Y-94749500D01*
X142105312Y-94729815D01*
X142059557Y-94677011D01*
X142049061Y-94638752D01*
X142044091Y-94592516D01*
X141993797Y-94457671D01*
X141993793Y-94457664D01*
X141907547Y-94342455D01*
X141907544Y-94342452D01*
X141792335Y-94256206D01*
X141792328Y-94256202D01*
X141657482Y-94205908D01*
X141657483Y-94205908D01*
X141597883Y-94199501D01*
X141597881Y-94199500D01*
X141597873Y-94199500D01*
X141597864Y-94199500D01*
X139902129Y-94199500D01*
X139902123Y-94199501D01*
X139842516Y-94205908D01*
X139707671Y-94256202D01*
X139707664Y-94256206D01*
X139592455Y-94342452D01*
X139592452Y-94342455D01*
X139506206Y-94457664D01*
X139506202Y-94457671D01*
X139455910Y-94592513D01*
X139455909Y-94592517D01*
X139450937Y-94638757D01*
X139424201Y-94703306D01*
X139366809Y-94743154D01*
X139327649Y-94749500D01*
X138426080Y-94749500D01*
X138281092Y-94778340D01*
X138281086Y-94778342D01*
X138144508Y-94834914D01*
X138144496Y-94834921D01*
X138095269Y-94867813D01*
X138021588Y-94917044D01*
X138021580Y-94917050D01*
X136771291Y-96167340D01*
X136709968Y-96200825D01*
X136640276Y-96195841D01*
X136584343Y-96153969D01*
X136582061Y-96150818D01*
X136538495Y-96088599D01*
X136538493Y-96088597D01*
X136538492Y-96088595D01*
X136371402Y-95921506D01*
X136371395Y-95921501D01*
X136358577Y-95912526D01*
X136332521Y-95894281D01*
X136177834Y-95785967D01*
X136177830Y-95785965D01*
X136177828Y-95785964D01*
X135963663Y-95686097D01*
X135963659Y-95686096D01*
X135963655Y-95686094D01*
X135735413Y-95624938D01*
X135735403Y-95624936D01*
X135500001Y-95604341D01*
X135499999Y-95604341D01*
X135264596Y-95624936D01*
X135264586Y-95624938D01*
X135036344Y-95686094D01*
X135036335Y-95686098D01*
X134822171Y-95785964D01*
X134822169Y-95785965D01*
X134628597Y-95921505D01*
X134461505Y-96088597D01*
X134325965Y-96282169D01*
X134325964Y-96282171D01*
X134226098Y-96496335D01*
X134226094Y-96496344D01*
X134164938Y-96724586D01*
X134164936Y-96724596D01*
X134144341Y-96959999D01*
X134144341Y-96960000D01*
X134164936Y-97195403D01*
X134164938Y-97195413D01*
X134226094Y-97423655D01*
X134226096Y-97423659D01*
X134226097Y-97423663D01*
X134304681Y-97592186D01*
X134325965Y-97637830D01*
X134325967Y-97637834D01*
X134413607Y-97762996D01*
X134461505Y-97831401D01*
X134628599Y-97998495D01*
X134628604Y-97998499D01*
X134629968Y-97999643D01*
X134630407Y-98000303D01*
X134632427Y-98002323D01*
X134632021Y-98002728D01*
X134668669Y-98057815D01*
X134669776Y-98127676D01*
X134632937Y-98187046D01*
X134589267Y-98212336D01*
X134580669Y-98215184D01*
X134580663Y-98215187D01*
X134431342Y-98307289D01*
X134307289Y-98431342D01*
X134215187Y-98580663D01*
X134215186Y-98580666D01*
X134160001Y-98747203D01*
X134160001Y-98747204D01*
X134160000Y-98747204D01*
X134149500Y-98849983D01*
X134149500Y-100150001D01*
X134149501Y-100150018D01*
X134160000Y-100252796D01*
X134160001Y-100252799D01*
X134187736Y-100336496D01*
X134190138Y-100406324D01*
X134154406Y-100466366D01*
X134091886Y-100497559D01*
X134070030Y-100499500D01*
X133874500Y-100499500D01*
X133807461Y-100479815D01*
X133761706Y-100427011D01*
X133750500Y-100375500D01*
X133750500Y-93624500D01*
X133770185Y-93557461D01*
X133822989Y-93511706D01*
X133874500Y-93500500D01*
X135135329Y-93500500D01*
X135202368Y-93520185D01*
G37*
%TD.AperFunction*%
M02*
