%TF.GenerationSoftware,KiCad,Pcbnew,8.0.7*%
%TF.CreationDate,2025-05-20T16:07:39-04:00*%
%TF.ProjectId,SurperCapSurfer,53757270-6572-4436-9170-537572666572,rev?*%
%TF.SameCoordinates,Original*%
%TF.FileFunction,Copper,L1,Top*%
%TF.FilePolarity,Positive*%
%FSLAX46Y46*%
G04 Gerber Fmt 4.6, Leading zero omitted, Abs format (unit mm)*
G04 Created by KiCad (PCBNEW 8.0.7) date 2025-05-20 16:07:39*
%MOMM*%
%LPD*%
G01*
G04 APERTURE LIST*
G04 Aperture macros list*
%AMRoundRect*
0 Rectangle with rounded corners*
0 $1 Rounding radius*
0 $2 $3 $4 $5 $6 $7 $8 $9 X,Y pos of 4 corners*
0 Add a 4 corners polygon primitive as box body*
4,1,4,$2,$3,$4,$5,$6,$7,$8,$9,$2,$3,0*
0 Add four circle primitives for the rounded corners*
1,1,$1+$1,$2,$3*
1,1,$1+$1,$4,$5*
1,1,$1+$1,$6,$7*
1,1,$1+$1,$8,$9*
0 Add four rect primitives between the rounded corners*
20,1,$1+$1,$2,$3,$4,$5,0*
20,1,$1+$1,$4,$5,$6,$7,0*
20,1,$1+$1,$6,$7,$8,$9,0*
20,1,$1+$1,$8,$9,$2,$3,0*%
G04 Aperture macros list end*
%TA.AperFunction,SMDPad,CuDef*%
%ADD10RoundRect,0.250000X0.600000X0.600000X-0.600000X0.600000X-0.600000X-0.600000X0.600000X-0.600000X0*%
%TD*%
%TA.AperFunction,SMDPad,CuDef*%
%ADD11O,1.700000X1.700000*%
%TD*%
%TA.AperFunction,SMDPad,CuDef*%
%ADD12O,4.000000X1.500000*%
%TD*%
%TA.AperFunction,SMDPad,CuDef*%
%ADD13RoundRect,0.250000X-1.750000X0.500000X-1.750000X-0.500000X1.750000X-0.500000X1.750000X0.500000X0*%
%TD*%
%TA.AperFunction,ComponentPad*%
%ADD14R,1.600000X1.600000*%
%TD*%
%TA.AperFunction,ComponentPad*%
%ADD15C,1.600000*%
%TD*%
%TA.AperFunction,SMDPad,CuDef*%
%ADD16RoundRect,0.225000X-0.375000X0.225000X-0.375000X-0.225000X0.375000X-0.225000X0.375000X0.225000X0*%
%TD*%
%TA.AperFunction,Conductor*%
%ADD17C,1.000000*%
%TD*%
%TA.AperFunction,Conductor*%
%ADD18C,0.500000*%
%TD*%
G04 APERTURE END LIST*
D10*
%TO.P,J1,1,Pin_1*%
%TO.N,GND*%
X135500000Y-99500000D03*
D11*
%TO.P,J1,2,Pin_2*%
%TO.N,+2V5*%
X135500000Y-96960000D03*
%TD*%
D12*
%TO.P,M1,1,+*%
%TO.N,+2V5*%
X149750000Y-96000000D03*
D13*
%TO.P,M1,2,-*%
%TO.N,GND*%
X149750000Y-98000000D03*
%TD*%
D14*
%TO.P,C1,1*%
%TO.N,+2V5*%
X140750000Y-95500000D03*
D15*
%TO.P,C1,2*%
%TO.N,GND*%
X140750000Y-98000000D03*
%TD*%
D16*
%TO.P,D1,1,K*%
%TO.N,+2V5*%
X145500000Y-95350000D03*
%TO.P,D1,2,A*%
%TO.N,GND*%
X145500000Y-98650000D03*
%TD*%
D17*
%TO.N,GND*%
X140750000Y-98000000D02*
X138750000Y-98000000D01*
X138750000Y-98000000D02*
X137250000Y-99500000D01*
X137250000Y-99500000D02*
X135500000Y-99500000D01*
%TO.N,+2V5*%
X135500000Y-96960000D02*
X137290000Y-96960000D01*
X137290000Y-96960000D02*
X138750000Y-95500000D01*
X138750000Y-95500000D02*
X140750000Y-95500000D01*
%TO.N,GND*%
X140750000Y-98000000D02*
X144850000Y-98000000D01*
X144850000Y-98000000D02*
X145500000Y-98650000D01*
%TO.N,+2V5*%
X140750000Y-95500000D02*
X140850000Y-95400000D01*
X140850000Y-95400000D02*
X145450000Y-95400000D01*
X145450000Y-95400000D02*
X145500000Y-95350000D01*
D18*
%TO.N,GND*%
X145500000Y-98650000D02*
X146600000Y-98650000D01*
X146600000Y-98650000D02*
X147250000Y-98000000D01*
X147250000Y-98000000D02*
X149750000Y-98000000D01*
X140250000Y-98000000D02*
X140750000Y-98000000D01*
%TO.N,+2V5*%
X145500000Y-95350000D02*
X146537500Y-95350000D01*
X147187500Y-96000000D02*
X149750000Y-96000000D01*
X146537500Y-95350000D02*
X147187500Y-96000000D01*
%TD*%
%TA.AperFunction,NonConductor*%
G36*
X139479859Y-96520185D02*
G01*
X139512085Y-96550187D01*
X139592454Y-96657546D01*
X139638643Y-96692123D01*
X139707664Y-96743793D01*
X139707671Y-96743797D01*
X139749285Y-96759318D01*
X139805219Y-96801189D01*
X139829636Y-96866653D01*
X139814785Y-96934926D01*
X139765380Y-96984332D01*
X139705952Y-96999500D01*
X138964782Y-96999500D01*
X138897743Y-96979815D01*
X138851988Y-96927011D01*
X138842044Y-96857853D01*
X138871069Y-96794297D01*
X138877101Y-96787819D01*
X139128101Y-96536819D01*
X139189424Y-96503334D01*
X139215782Y-96500500D01*
X139412820Y-96500500D01*
X139479859Y-96520185D01*
G37*
%TD.AperFunction*%
%TA.AperFunction,NonConductor*%
G36*
X146345285Y-96222500D02*
G01*
X146364009Y-96237877D01*
X146709086Y-96582954D01*
X146738558Y-96602645D01*
X146782770Y-96632186D01*
X146832005Y-96665084D01*
X146832006Y-96665084D01*
X146832007Y-96665085D01*
X146832009Y-96665086D01*
X146968582Y-96721656D01*
X146968587Y-96721658D01*
X146968591Y-96721658D01*
X146968592Y-96721659D01*
X147113579Y-96750500D01*
X147113582Y-96750500D01*
X147113583Y-96750500D01*
X147261418Y-96750500D01*
X147388769Y-96750500D01*
X147455808Y-96770185D01*
X147501563Y-96822989D01*
X147511507Y-96892147D01*
X147482482Y-96955703D01*
X147476451Y-96962181D01*
X147407288Y-97031344D01*
X147356696Y-97113368D01*
X147311395Y-97186813D01*
X147309600Y-97185706D01*
X147270313Y-97230337D01*
X147204092Y-97249500D01*
X147176080Y-97249500D01*
X147031092Y-97278340D01*
X147031082Y-97278343D01*
X146894509Y-97334913D01*
X146894507Y-97334914D01*
X146853645Y-97362218D01*
X146853643Y-97362219D01*
X146771589Y-97417043D01*
X146771584Y-97417047D01*
X146402665Y-97785966D01*
X146341342Y-97819451D01*
X146271650Y-97814467D01*
X146249887Y-97803824D01*
X146183699Y-97762998D01*
X146183694Y-97762996D01*
X146022709Y-97709651D01*
X146022695Y-97709648D01*
X146012972Y-97708655D01*
X145948281Y-97682256D01*
X145937899Y-97672979D01*
X145631479Y-97366559D01*
X145631459Y-97366537D01*
X145487785Y-97222863D01*
X145487781Y-97222860D01*
X145323920Y-97113371D01*
X145323907Y-97113364D01*
X145191549Y-97058541D01*
X145141836Y-97037949D01*
X145141828Y-97037947D01*
X145045188Y-97018724D01*
X144948544Y-96999500D01*
X144948541Y-96999500D01*
X141794048Y-96999500D01*
X141727009Y-96979815D01*
X141681254Y-96927011D01*
X141671310Y-96857853D01*
X141700335Y-96794297D01*
X141750715Y-96759318D01*
X141792328Y-96743797D01*
X141792327Y-96743797D01*
X141792331Y-96743796D01*
X141907546Y-96657546D01*
X141993796Y-96542331D01*
X142010951Y-96496337D01*
X142016609Y-96481167D01*
X142058480Y-96425233D01*
X142123944Y-96400816D01*
X142132791Y-96400500D01*
X145548543Y-96400500D01*
X145625415Y-96385208D01*
X145663852Y-96377563D01*
X145741836Y-96362051D01*
X145795165Y-96339961D01*
X145867647Y-96309937D01*
X145915100Y-96300499D01*
X145923338Y-96300499D01*
X145923344Y-96300499D01*
X145923352Y-96300498D01*
X145923355Y-96300498D01*
X145998459Y-96292826D01*
X146022708Y-96290349D01*
X146183697Y-96237003D01*
X146183699Y-96237001D01*
X146183701Y-96237001D01*
X146211229Y-96220021D01*
X146278621Y-96201579D01*
X146345285Y-96222500D01*
G37*
%TD.AperFunction*%
%TA.AperFunction,NonConductor*%
G36*
X137142256Y-97980185D02*
G01*
X137188011Y-98032989D01*
X137197955Y-98102147D01*
X137168930Y-98165703D01*
X137162898Y-98172181D01*
X136884108Y-98450971D01*
X136822785Y-98484456D01*
X136753093Y-98479472D01*
X136697160Y-98437600D01*
X136694071Y-98433063D01*
X136692711Y-98431343D01*
X136568657Y-98307289D01*
X136568656Y-98307288D01*
X136419334Y-98215186D01*
X136410733Y-98212336D01*
X136353290Y-98172564D01*
X136326467Y-98108048D01*
X136338782Y-98039272D01*
X136367767Y-98002517D01*
X136367573Y-98002323D01*
X136369219Y-98000676D01*
X136370040Y-97999636D01*
X136371388Y-97998504D01*
X136371401Y-97998495D01*
X136373077Y-97996819D01*
X136373995Y-97996317D01*
X136375555Y-97995009D01*
X136375817Y-97995322D01*
X136434400Y-97963334D01*
X136460758Y-97960500D01*
X137075217Y-97960500D01*
X137142256Y-97980185D01*
G37*
%TD.AperFunction*%
%TA.AperFunction,NonConductor*%
G36*
X135202368Y-93520185D02*
G01*
X135248123Y-93572989D01*
X135258067Y-93642147D01*
X135229042Y-93705703D01*
X135182782Y-93739061D01*
X135144507Y-93754914D01*
X135144498Y-93754919D01*
X135021584Y-93837048D01*
X135021580Y-93837051D01*
X134917051Y-93941580D01*
X134917048Y-93941584D01*
X134834919Y-94064498D01*
X134834912Y-94064511D01*
X134778343Y-94201082D01*
X134778340Y-94201092D01*
X134749500Y-94346079D01*
X134749500Y-94346082D01*
X134749500Y-94493918D01*
X134749500Y-94493920D01*
X134749499Y-94493920D01*
X134778340Y-94638907D01*
X134778343Y-94638917D01*
X134834912Y-94775488D01*
X134834919Y-94775501D01*
X134917048Y-94898415D01*
X134917051Y-94898419D01*
X135021580Y-95002948D01*
X135021584Y-95002951D01*
X135144498Y-95085080D01*
X135144511Y-95085087D01*
X135281082Y-95141656D01*
X135281087Y-95141658D01*
X135281091Y-95141658D01*
X135281092Y-95141659D01*
X135426079Y-95170500D01*
X135426082Y-95170500D01*
X135573920Y-95170500D01*
X135671462Y-95151096D01*
X135718913Y-95141658D01*
X135855495Y-95085084D01*
X135978416Y-95002951D01*
X136082951Y-94898416D01*
X136165084Y-94775495D01*
X136221658Y-94638913D01*
X136233414Y-94579815D01*
X136250500Y-94493920D01*
X136250500Y-94346079D01*
X136221659Y-94201092D01*
X136221658Y-94201091D01*
X136221658Y-94201087D01*
X136188815Y-94121796D01*
X136165087Y-94064511D01*
X136165080Y-94064498D01*
X136082951Y-93941584D01*
X136082948Y-93941580D01*
X135978419Y-93837051D01*
X135978415Y-93837048D01*
X135855501Y-93754919D01*
X135855492Y-93754914D01*
X135817218Y-93739061D01*
X135762815Y-93695220D01*
X135740750Y-93628926D01*
X135758029Y-93561227D01*
X135809166Y-93513616D01*
X135864671Y-93500500D01*
X149434108Y-93500500D01*
X149496754Y-93500500D01*
X149503244Y-93500670D01*
X149859310Y-93519331D01*
X149872217Y-93520688D01*
X150026314Y-93545094D01*
X150221165Y-93575954D01*
X150233852Y-93578650D01*
X150575134Y-93670097D01*
X150587468Y-93674105D01*
X150917318Y-93800723D01*
X150929154Y-93805992D01*
X151243977Y-93966402D01*
X151255183Y-93972872D01*
X151551511Y-94165310D01*
X151562001Y-94172932D01*
X151830133Y-94390061D01*
X151836576Y-94395278D01*
X151846221Y-94403963D01*
X152096036Y-94653778D01*
X152104721Y-94663423D01*
X152327067Y-94937998D01*
X152334692Y-94948492D01*
X152527123Y-95244810D01*
X152533600Y-95256029D01*
X152689051Y-95561118D01*
X152694002Y-95570835D01*
X152699281Y-95582692D01*
X152825892Y-95912526D01*
X152829903Y-95924870D01*
X152921347Y-96266141D01*
X152924045Y-96278838D01*
X152979311Y-96627782D01*
X152980668Y-96640689D01*
X152999159Y-96993510D01*
X152999159Y-97006490D01*
X152980668Y-97359310D01*
X152979311Y-97372217D01*
X152924045Y-97721161D01*
X152921347Y-97733858D01*
X152829903Y-98075129D01*
X152825892Y-98087473D01*
X152699281Y-98417307D01*
X152694002Y-98429164D01*
X152533604Y-98743964D01*
X152527118Y-98755197D01*
X152465564Y-98849983D01*
X152334696Y-99051501D01*
X152327067Y-99062001D01*
X152319757Y-99071028D01*
X152262269Y-99110739D01*
X152256144Y-99110943D01*
X152245609Y-99159379D01*
X152233142Y-99177989D01*
X152104721Y-99336576D01*
X152096036Y-99346221D01*
X151846221Y-99596036D01*
X151836576Y-99604721D01*
X151562001Y-99827067D01*
X151551501Y-99834696D01*
X151462232Y-99892668D01*
X151255197Y-100027118D01*
X151243964Y-100033604D01*
X150929164Y-100194002D01*
X150917307Y-100199281D01*
X150587473Y-100325892D01*
X150575129Y-100329903D01*
X150233858Y-100421347D01*
X150221161Y-100424045D01*
X149872217Y-100479311D01*
X149859310Y-100480668D01*
X149503244Y-100499330D01*
X149496754Y-100499500D01*
X137963392Y-100499500D01*
X137896353Y-100479815D01*
X137850598Y-100427011D01*
X137840654Y-100357853D01*
X137869679Y-100294297D01*
X137884725Y-100279648D01*
X137887776Y-100277142D01*
X137887782Y-100277139D01*
X138027139Y-100137782D01*
X138027139Y-100137780D01*
X138037347Y-100127573D01*
X138037348Y-100127570D01*
X139128102Y-99036819D01*
X139189425Y-99003334D01*
X139215783Y-99000500D01*
X139872412Y-99000500D01*
X139939451Y-99020185D01*
X139943523Y-99022917D01*
X140097266Y-99130568D01*
X140303504Y-99226739D01*
X140303509Y-99226740D01*
X140303511Y-99226741D01*
X140352991Y-99239999D01*
X140523308Y-99285635D01*
X140685230Y-99299801D01*
X140749998Y-99305468D01*
X140750000Y-99305468D01*
X140750002Y-99305468D01*
X140806673Y-99300509D01*
X140976692Y-99285635D01*
X141196496Y-99226739D01*
X141402734Y-99130568D01*
X141556465Y-99022924D01*
X141622671Y-99000598D01*
X141627588Y-99000500D01*
X144312751Y-99000500D01*
X144379790Y-99020185D01*
X144425545Y-99072989D01*
X144430455Y-99085491D01*
X144438889Y-99110943D01*
X144462996Y-99183694D01*
X144463001Y-99183705D01*
X144552029Y-99328040D01*
X144552032Y-99328044D01*
X144671955Y-99447967D01*
X144671959Y-99447970D01*
X144816294Y-99536998D01*
X144816297Y-99536999D01*
X144816303Y-99537003D01*
X144977292Y-99590349D01*
X145076655Y-99600500D01*
X145155608Y-99600499D01*
X145203065Y-99609939D01*
X145205963Y-99611139D01*
X145208164Y-99612051D01*
X145208168Y-99612051D01*
X145208169Y-99612052D01*
X145401455Y-99650499D01*
X145401458Y-99650500D01*
X145401460Y-99650500D01*
X145598542Y-99650500D01*
X145598543Y-99650499D01*
X145791836Y-99612051D01*
X145796935Y-99609938D01*
X145844390Y-99600499D01*
X145923338Y-99600499D01*
X145923344Y-99600499D01*
X145923352Y-99600498D01*
X145923355Y-99600498D01*
X145977760Y-99594940D01*
X146022708Y-99590349D01*
X146183697Y-99537003D01*
X146328044Y-99447968D01*
X146339193Y-99436819D01*
X146400516Y-99403334D01*
X146426874Y-99400500D01*
X146673920Y-99400500D01*
X146771462Y-99381096D01*
X146818913Y-99371658D01*
X146955495Y-99315084D01*
X147004729Y-99282186D01*
X147078416Y-99232952D01*
X147287322Y-99024045D01*
X147348640Y-98990563D01*
X147418332Y-98995547D01*
X147462680Y-99024048D01*
X147531344Y-99092712D01*
X147680666Y-99184814D01*
X147847203Y-99239999D01*
X147949991Y-99250500D01*
X151550008Y-99250499D01*
X151652797Y-99239999D01*
X151819334Y-99184814D01*
X151968656Y-99092712D01*
X152049098Y-99012269D01*
X152104929Y-98981783D01*
X152108943Y-98945266D01*
X152117853Y-98927895D01*
X152165910Y-98849983D01*
X152184814Y-98819334D01*
X152239999Y-98652797D01*
X152250500Y-98550009D01*
X152250499Y-97449992D01*
X152247809Y-97423663D01*
X152239999Y-97347203D01*
X152239998Y-97347200D01*
X152217181Y-97278343D01*
X152184814Y-97180666D01*
X152092712Y-97031344D01*
X151995970Y-96934602D01*
X151962485Y-96873279D01*
X151967469Y-96803587D01*
X151983330Y-96774039D01*
X152069524Y-96655405D01*
X152158884Y-96480025D01*
X152219709Y-96292826D01*
X152221397Y-96282169D01*
X152250500Y-96098422D01*
X152250500Y-95901577D01*
X152219709Y-95707173D01*
X152177291Y-95576625D01*
X152158884Y-95519975D01*
X152158882Y-95519972D01*
X152158882Y-95519970D01*
X152069523Y-95344594D01*
X151953828Y-95185354D01*
X151814646Y-95046172D01*
X151655405Y-94930476D01*
X151480029Y-94841117D01*
X151292826Y-94780290D01*
X151098422Y-94749500D01*
X151098417Y-94749500D01*
X148401583Y-94749500D01*
X148401578Y-94749500D01*
X148207173Y-94780290D01*
X148019970Y-94841117D01*
X147844594Y-94930476D01*
X147753741Y-94996485D01*
X147685354Y-95046172D01*
X147685352Y-95046174D01*
X147685351Y-95046174D01*
X147577878Y-95153648D01*
X147516555Y-95187133D01*
X147446863Y-95182149D01*
X147402516Y-95153648D01*
X147015913Y-94767045D01*
X146966679Y-94734150D01*
X146933855Y-94712218D01*
X146892995Y-94684916D01*
X146892994Y-94684915D01*
X146892992Y-94684914D01*
X146892990Y-94684913D01*
X146756417Y-94628343D01*
X146756407Y-94628340D01*
X146611420Y-94599500D01*
X146611418Y-94599500D01*
X146426874Y-94599500D01*
X146359835Y-94579815D01*
X146339193Y-94563181D01*
X146328044Y-94552032D01*
X146328040Y-94552029D01*
X146183705Y-94463001D01*
X146183699Y-94462998D01*
X146183697Y-94462997D01*
X146143904Y-94449811D01*
X146022709Y-94409651D01*
X145923352Y-94399500D01*
X145923345Y-94399500D01*
X145844390Y-94399500D01*
X145796938Y-94390061D01*
X145791840Y-94387949D01*
X145791828Y-94387946D01*
X145598545Y-94349500D01*
X145598541Y-94349500D01*
X145401460Y-94349500D01*
X145401455Y-94349500D01*
X145208172Y-94387946D01*
X145208160Y-94387949D01*
X145203063Y-94390061D01*
X145155611Y-94399500D01*
X142012320Y-94399500D01*
X141945281Y-94379815D01*
X141913052Y-94349809D01*
X141907548Y-94342457D01*
X141907546Y-94342454D01*
X141907542Y-94342451D01*
X141792335Y-94256206D01*
X141792328Y-94256202D01*
X141657482Y-94205908D01*
X141657483Y-94205908D01*
X141597883Y-94199501D01*
X141597881Y-94199500D01*
X141597873Y-94199500D01*
X141597864Y-94199500D01*
X139902129Y-94199500D01*
X139902123Y-94199501D01*
X139842516Y-94205908D01*
X139707671Y-94256202D01*
X139707664Y-94256206D01*
X139592456Y-94342452D01*
X139592455Y-94342453D01*
X139592454Y-94342454D01*
X139512087Y-94449811D01*
X139456153Y-94491682D01*
X139412820Y-94499500D01*
X138651457Y-94499500D01*
X138581741Y-94513368D01*
X138581740Y-94513368D01*
X138458171Y-94537947D01*
X138458163Y-94537949D01*
X138424165Y-94552032D01*
X138424164Y-94552032D01*
X138276092Y-94613364D01*
X138276079Y-94613371D01*
X138112219Y-94722859D01*
X138068034Y-94767045D01*
X137972861Y-94862218D01*
X137972858Y-94862221D01*
X136911899Y-95923181D01*
X136850576Y-95956666D01*
X136824218Y-95959500D01*
X136460758Y-95959500D01*
X136393719Y-95939815D01*
X136373077Y-95923181D01*
X136371402Y-95921506D01*
X136371395Y-95921501D01*
X136358577Y-95912526D01*
X136332521Y-95894281D01*
X136177834Y-95785967D01*
X136177830Y-95785965D01*
X136177828Y-95785964D01*
X135963663Y-95686097D01*
X135963659Y-95686096D01*
X135963655Y-95686094D01*
X135735413Y-95624938D01*
X135735403Y-95624936D01*
X135500001Y-95604341D01*
X135499999Y-95604341D01*
X135264596Y-95624936D01*
X135264586Y-95624938D01*
X135036344Y-95686094D01*
X135036335Y-95686098D01*
X134822171Y-95785964D01*
X134822169Y-95785965D01*
X134628597Y-95921505D01*
X134461505Y-96088597D01*
X134325965Y-96282169D01*
X134325964Y-96282171D01*
X134226098Y-96496335D01*
X134226094Y-96496344D01*
X134164938Y-96724586D01*
X134164936Y-96724596D01*
X134144341Y-96959999D01*
X134144341Y-96960000D01*
X134164936Y-97195403D01*
X134164938Y-97195413D01*
X134226094Y-97423655D01*
X134226096Y-97423659D01*
X134226097Y-97423663D01*
X134318787Y-97622437D01*
X134325965Y-97637830D01*
X134325967Y-97637834D01*
X134413607Y-97762996D01*
X134461505Y-97831401D01*
X134628599Y-97998495D01*
X134628604Y-97998499D01*
X134629968Y-97999643D01*
X134630407Y-98000303D01*
X134632427Y-98002323D01*
X134632021Y-98002728D01*
X134668669Y-98057815D01*
X134669776Y-98127676D01*
X134632937Y-98187046D01*
X134589267Y-98212336D01*
X134580669Y-98215184D01*
X134580663Y-98215187D01*
X134431342Y-98307289D01*
X134307289Y-98431342D01*
X134215187Y-98580663D01*
X134215186Y-98580666D01*
X134160001Y-98747203D01*
X134160001Y-98747204D01*
X134160000Y-98747204D01*
X134149500Y-98849983D01*
X134149500Y-100150001D01*
X134149501Y-100150018D01*
X134160000Y-100252796D01*
X134160001Y-100252799D01*
X134187736Y-100336496D01*
X134190138Y-100406324D01*
X134154406Y-100466366D01*
X134091886Y-100497559D01*
X134070030Y-100499500D01*
X133874500Y-100499500D01*
X133807461Y-100479815D01*
X133761706Y-100427011D01*
X133750500Y-100375500D01*
X133750500Y-93624500D01*
X133770185Y-93557461D01*
X133822989Y-93511706D01*
X133874500Y-93500500D01*
X135135329Y-93500500D01*
X135202368Y-93520185D01*
G37*
%TD.AperFunction*%
M02*
