%TF.GenerationSoftware,KiCad,Pcbnew,8.0.7*%
%TF.CreationDate,2025-05-16T15:34:53-04:00*%
%TF.ProjectId,SurperCapSurfer,53757270-6572-4436-9170-537572666572,rev?*%
%TF.SameCoordinates,Original*%
%TF.FileFunction,Copper,L1,Top*%
%TF.FilePolarity,Positive*%
%FSLAX46Y46*%
G04 Gerber Fmt 4.6, Leading zero omitted, Abs format (unit mm)*
G04 Created by KiCad (PCBNEW 8.0.7) date 2025-05-16 15:34:53*
%MOMM*%
%LPD*%
G01*
G04 APERTURE LIST*
G04 Aperture macros list*
%AMRoundRect*
0 Rectangle with rounded corners*
0 $1 Rounding radius*
0 $2 $3 $4 $5 $6 $7 $8 $9 X,Y pos of 4 corners*
0 Add a 4 corners polygon primitive as box body*
4,1,4,$2,$3,$4,$5,$6,$7,$8,$9,$2,$3,0*
0 Add four circle primitives for the rounded corners*
1,1,$1+$1,$2,$3*
1,1,$1+$1,$4,$5*
1,1,$1+$1,$6,$7*
1,1,$1+$1,$8,$9*
0 Add four rect primitives between the rounded corners*
20,1,$1+$1,$2,$3,$4,$5,0*
20,1,$1+$1,$4,$5,$6,$7,0*
20,1,$1+$1,$6,$7,$8,$9,0*
20,1,$1+$1,$8,$9,$2,$3,0*%
G04 Aperture macros list end*
%TA.AperFunction,SMDPad,CuDef*%
%ADD10O,4.000000X1.500000*%
%TD*%
%TA.AperFunction,SMDPad,CuDef*%
%ADD11RoundRect,0.250000X-1.750000X0.500000X-1.750000X-0.500000X1.750000X-0.500000X1.750000X0.500000X0*%
%TD*%
%TA.AperFunction,SMDPad,CuDef*%
%ADD12RoundRect,0.212500X0.212500X0.212500X-0.212500X0.212500X-0.212500X-0.212500X0.212500X-0.212500X0*%
%TD*%
%TA.AperFunction,SMDPad,CuDef*%
%ADD13O,0.850000X0.850000*%
%TD*%
%TA.AperFunction,ComponentPad*%
%ADD14O,0.850000X0.850000*%
%TD*%
%TA.AperFunction,SMDPad,CuDef*%
%ADD15RoundRect,0.225000X-0.375000X0.225000X-0.375000X-0.225000X0.375000X-0.225000X0.375000X0.225000X0*%
%TD*%
%TA.AperFunction,ComponentPad*%
%ADD16R,1.600000X1.600000*%
%TD*%
%TA.AperFunction,ComponentPad*%
%ADD17C,1.600000*%
%TD*%
%TA.AperFunction,Conductor*%
%ADD18C,0.500000*%
%TD*%
G04 APERTURE END LIST*
D10*
%TO.P,M1,1,+*%
%TO.N,+2V5*%
X149000000Y-96000000D03*
D11*
%TO.P,M1,2,-*%
%TO.N,GND*%
X149000000Y-98000000D03*
%TD*%
D12*
%TO.P,J1,1,Pin_1*%
%TO.N,GND*%
X135500000Y-97750000D03*
D13*
%TO.P,J1,2,Pin_2*%
%TO.N,+2V5*%
X135500000Y-96750000D03*
D14*
%TO.P,J1,3,Pin_3*%
%TO.N,unconnected-(J1-Pin_3-Pad3)*%
X135500000Y-95750000D03*
%TD*%
D15*
%TO.P,D1,1,K*%
%TO.N,+2V5*%
X145000000Y-95350000D03*
%TO.P,D1,2,A*%
%TO.N,GND*%
X145000000Y-98650000D03*
%TD*%
D16*
%TO.P,C1,1*%
%TO.N,+2V5*%
X140250000Y-95500000D03*
D17*
%TO.P,C1,2*%
%TO.N,GND*%
X140250000Y-98000000D03*
%TD*%
D18*
%TO.N,GND*%
X140250000Y-98000000D02*
X140500000Y-98000000D01*
X140500000Y-98000000D02*
X141150000Y-98650000D01*
X141150000Y-98650000D02*
X145000000Y-98650000D01*
%TO.N,+2V5*%
X145000000Y-95350000D02*
X145650000Y-96000000D01*
X145650000Y-96000000D02*
X149000000Y-96000000D01*
%TO.N,GND*%
X145000000Y-98650000D02*
X145650000Y-98000000D01*
X145650000Y-98000000D02*
X149000000Y-98000000D01*
%TO.N,+2V5*%
X140250000Y-95500000D02*
X144850000Y-95500000D01*
X144850000Y-95500000D02*
X145000000Y-95350000D01*
%TO.N,GND*%
X135500000Y-97750000D02*
X140000000Y-97750000D01*
X140000000Y-97750000D02*
X140250000Y-98000000D01*
%TO.N,+2V5*%
X135500000Y-96750000D02*
X139000000Y-96750000D01*
X139000000Y-96750000D02*
X140250000Y-95500000D01*
%TD*%
%TA.AperFunction,NonConductor*%
G36*
X149503356Y-93750681D02*
G01*
X149844624Y-93769185D01*
X149857968Y-93770636D01*
X150082585Y-93807461D01*
X150191910Y-93825384D01*
X150205021Y-93828269D01*
X150531104Y-93918805D01*
X150543800Y-93923083D01*
X150858196Y-94048350D01*
X150870360Y-94053978D01*
X151144845Y-94199501D01*
X151169347Y-94212491D01*
X151180849Y-94219411D01*
X151446461Y-94399500D01*
X151460951Y-94409324D01*
X151471639Y-94417449D01*
X151729560Y-94636530D01*
X151739298Y-94645754D01*
X151900853Y-94816305D01*
X151972021Y-94891435D01*
X151980711Y-94901665D01*
X152113739Y-95076662D01*
X152185507Y-95171071D01*
X152193038Y-95182178D01*
X152306944Y-95371492D01*
X152367507Y-95472148D01*
X152373796Y-95484011D01*
X152515885Y-95791131D01*
X152520855Y-95803603D01*
X152562436Y-95927011D01*
X152620191Y-96098422D01*
X152628909Y-96124294D01*
X152632501Y-96137232D01*
X152705247Y-96467723D01*
X152707419Y-96480972D01*
X152744007Y-96817391D01*
X152744734Y-96830798D01*
X152744734Y-97169201D01*
X152744007Y-97182608D01*
X152707419Y-97519027D01*
X152705247Y-97532276D01*
X152632501Y-97862767D01*
X152628909Y-97875705D01*
X152520855Y-98196396D01*
X152515885Y-98208868D01*
X152373796Y-98515988D01*
X152367507Y-98527851D01*
X152193041Y-98817816D01*
X152185507Y-98828928D01*
X151980714Y-99098330D01*
X151972021Y-99108564D01*
X151739303Y-99354240D01*
X151729556Y-99363473D01*
X151471640Y-99582549D01*
X151460951Y-99590675D01*
X151180851Y-99780587D01*
X151169347Y-99787508D01*
X150870371Y-99946016D01*
X150858185Y-99951654D01*
X150543814Y-100076911D01*
X150531090Y-100081198D01*
X150205022Y-100171729D01*
X150191910Y-100174615D01*
X149857970Y-100229362D01*
X149844623Y-100230814D01*
X149529806Y-100247883D01*
X149503355Y-100249318D01*
X149496644Y-100249500D01*
X133874500Y-100249500D01*
X133807461Y-100229815D01*
X133761706Y-100177011D01*
X133750500Y-100125500D01*
X133750500Y-95750000D01*
X134569402Y-95750000D01*
X134589738Y-95943483D01*
X134649856Y-96128510D01*
X134649857Y-96128511D01*
X134684203Y-96188000D01*
X134700676Y-96255900D01*
X134684203Y-96312000D01*
X134649857Y-96371488D01*
X134649856Y-96371489D01*
X134589738Y-96556516D01*
X134586959Y-96582954D01*
X134569402Y-96750000D01*
X134589738Y-96943482D01*
X134589739Y-96943485D01*
X134650130Y-97129353D01*
X134652125Y-97199194D01*
X134637743Y-97232758D01*
X134636904Y-97234117D01*
X134636902Y-97234121D01*
X134584476Y-97392335D01*
X134574500Y-97489979D01*
X134574500Y-98010005D01*
X134574501Y-98010023D01*
X134584475Y-98107662D01*
X134584476Y-98107665D01*
X134613879Y-98196396D01*
X134636903Y-98265878D01*
X134724404Y-98407739D01*
X134842261Y-98525596D01*
X134984122Y-98613097D01*
X135142337Y-98665524D01*
X135239987Y-98675500D01*
X135760012Y-98675499D01*
X135760020Y-98675498D01*
X135760023Y-98675498D01*
X135813489Y-98670036D01*
X135857663Y-98665524D01*
X136015878Y-98613097D01*
X136157739Y-98525596D01*
X136157740Y-98525594D01*
X136163886Y-98521804D01*
X136164930Y-98523497D01*
X136220455Y-98501094D01*
X136232578Y-98500500D01*
X138969447Y-98500500D01*
X139036486Y-98520185D01*
X139081829Y-98572095D01*
X139119431Y-98652732D01*
X139119432Y-98652734D01*
X139249954Y-98839141D01*
X139410858Y-99000045D01*
X139410861Y-99000047D01*
X139597266Y-99130568D01*
X139803504Y-99226739D01*
X139803509Y-99226740D01*
X139803511Y-99226741D01*
X139852991Y-99239999D01*
X140023308Y-99285635D01*
X140185230Y-99299801D01*
X140249998Y-99305468D01*
X140250000Y-99305468D01*
X140250002Y-99305468D01*
X140306673Y-99300509D01*
X140476692Y-99285635D01*
X140617809Y-99247822D01*
X140687658Y-99249485D01*
X140718793Y-99264495D01*
X140745270Y-99282186D01*
X140794505Y-99315084D01*
X140794510Y-99315086D01*
X140794509Y-99315086D01*
X140931082Y-99371656D01*
X140931087Y-99371658D01*
X140931091Y-99371658D01*
X140931092Y-99371659D01*
X141076079Y-99400500D01*
X141076082Y-99400500D01*
X141076083Y-99400500D01*
X141223918Y-99400500D01*
X144073126Y-99400500D01*
X144140165Y-99420185D01*
X144160807Y-99436819D01*
X144171955Y-99447967D01*
X144171959Y-99447970D01*
X144316294Y-99536998D01*
X144316297Y-99536999D01*
X144316303Y-99537003D01*
X144477292Y-99590349D01*
X144576655Y-99600500D01*
X145423344Y-99600499D01*
X145423352Y-99600498D01*
X145423355Y-99600498D01*
X145477760Y-99594940D01*
X145522708Y-99590349D01*
X145683697Y-99537003D01*
X145828044Y-99447968D01*
X145947968Y-99328044D01*
X146037003Y-99183697D01*
X146090349Y-99022708D01*
X146100500Y-98923345D01*
X146100500Y-98874500D01*
X146120185Y-98807461D01*
X146172989Y-98761706D01*
X146224500Y-98750500D01*
X146454092Y-98750500D01*
X146521131Y-98770185D01*
X146559636Y-98814271D01*
X146561395Y-98813187D01*
X146565185Y-98819331D01*
X146565186Y-98819334D01*
X146657288Y-98968656D01*
X146781344Y-99092712D01*
X146930666Y-99184814D01*
X147097203Y-99239999D01*
X147199991Y-99250500D01*
X150800008Y-99250499D01*
X150809935Y-99249485D01*
X150826214Y-99247822D01*
X150902797Y-99239999D01*
X151069334Y-99184814D01*
X151218656Y-99092712D01*
X151342712Y-98968656D01*
X151434814Y-98819334D01*
X151489999Y-98652797D01*
X151500500Y-98550009D01*
X151500499Y-97449992D01*
X151494609Y-97392337D01*
X151489999Y-97347203D01*
X151489998Y-97347200D01*
X151485927Y-97334914D01*
X151434814Y-97180666D01*
X151342712Y-97031344D01*
X151245970Y-96934602D01*
X151212485Y-96873279D01*
X151217469Y-96803587D01*
X151233330Y-96774039D01*
X151319524Y-96655405D01*
X151405603Y-96486463D01*
X151408882Y-96480029D01*
X151408882Y-96480028D01*
X151408884Y-96480025D01*
X151469709Y-96292826D01*
X151475416Y-96256794D01*
X151500500Y-96098422D01*
X151500500Y-95901577D01*
X151469709Y-95707173D01*
X151441487Y-95620317D01*
X151408884Y-95519975D01*
X151408882Y-95519972D01*
X151408882Y-95519970D01*
X151357158Y-95418457D01*
X151319524Y-95344595D01*
X151203828Y-95185354D01*
X151064646Y-95046172D01*
X150905405Y-94930476D01*
X150838366Y-94896318D01*
X150730029Y-94841117D01*
X150542826Y-94780290D01*
X150348422Y-94749500D01*
X150348417Y-94749500D01*
X147651583Y-94749500D01*
X147651578Y-94749500D01*
X147457173Y-94780290D01*
X147269970Y-94841117D01*
X147094594Y-94930476D01*
X147003741Y-94996485D01*
X146935354Y-95046172D01*
X146935352Y-95046174D01*
X146935351Y-95046174D01*
X146796171Y-95185354D01*
X146786703Y-95198387D01*
X146731372Y-95241052D01*
X146686386Y-95249500D01*
X146224499Y-95249500D01*
X146157460Y-95229815D01*
X146111705Y-95177011D01*
X146100499Y-95125500D01*
X146100499Y-95076662D01*
X146100498Y-95076644D01*
X146090349Y-94977292D01*
X146090348Y-94977289D01*
X146061899Y-94891435D01*
X146037003Y-94816303D01*
X146036999Y-94816297D01*
X146036998Y-94816294D01*
X145947970Y-94671959D01*
X145947967Y-94671955D01*
X145828044Y-94552032D01*
X145828040Y-94552029D01*
X145683705Y-94463001D01*
X145683699Y-94462998D01*
X145683697Y-94462997D01*
X145667603Y-94457664D01*
X145522709Y-94409651D01*
X145423346Y-94399500D01*
X144576662Y-94399500D01*
X144576644Y-94399501D01*
X144477292Y-94409650D01*
X144477289Y-94409651D01*
X144316305Y-94462996D01*
X144316294Y-94463001D01*
X144171959Y-94552029D01*
X144171955Y-94552032D01*
X144052031Y-94671956D01*
X144040535Y-94690596D01*
X143988588Y-94737321D01*
X143934996Y-94749500D01*
X141672351Y-94749500D01*
X141605312Y-94729815D01*
X141559557Y-94677011D01*
X141549061Y-94638752D01*
X141544091Y-94592516D01*
X141493797Y-94457671D01*
X141493793Y-94457664D01*
X141407547Y-94342455D01*
X141407544Y-94342452D01*
X141292335Y-94256206D01*
X141292328Y-94256202D01*
X141157482Y-94205908D01*
X141157483Y-94205908D01*
X141097883Y-94199501D01*
X141097881Y-94199500D01*
X141097873Y-94199500D01*
X141097864Y-94199500D01*
X139402129Y-94199500D01*
X139402123Y-94199501D01*
X139342516Y-94205908D01*
X139207671Y-94256202D01*
X139207664Y-94256206D01*
X139092455Y-94342452D01*
X139092452Y-94342455D01*
X139006206Y-94457664D01*
X139006202Y-94457671D01*
X138955908Y-94592517D01*
X138949501Y-94652116D01*
X138949500Y-94652135D01*
X138949500Y-95687769D01*
X138929815Y-95754808D01*
X138913181Y-95775450D01*
X138725451Y-95963181D01*
X138664128Y-95996666D01*
X138637770Y-95999500D01*
X136542090Y-95999500D01*
X136475051Y-95979815D01*
X136429296Y-95927011D01*
X136418769Y-95862540D01*
X136430598Y-95750000D01*
X136410262Y-95556518D01*
X136350144Y-95371492D01*
X136350143Y-95371491D01*
X136350143Y-95371489D01*
X136350142Y-95371488D01*
X136279712Y-95249500D01*
X136252870Y-95203008D01*
X136201882Y-95146381D01*
X136122697Y-95058435D01*
X136122694Y-95058433D01*
X136122693Y-95058432D01*
X136122692Y-95058431D01*
X136011010Y-94977289D01*
X135965297Y-94944076D01*
X135828848Y-94883326D01*
X135787571Y-94864949D01*
X135787569Y-94864948D01*
X135597274Y-94824500D01*
X135402726Y-94824500D01*
X135212431Y-94864948D01*
X135034702Y-94944076D01*
X134877305Y-95058433D01*
X134877302Y-95058435D01*
X134747129Y-95203009D01*
X134649857Y-95371488D01*
X134649856Y-95371489D01*
X134589738Y-95556516D01*
X134569402Y-95750000D01*
X133750500Y-95750000D01*
X133750500Y-93874500D01*
X133770185Y-93807461D01*
X133822989Y-93761706D01*
X133874500Y-93750500D01*
X149434108Y-93750500D01*
X149496644Y-93750500D01*
X149503356Y-93750681D01*
G37*
%TD.AperFunction*%
%TA.AperFunction,NonConductor*%
G36*
X144376029Y-96256794D02*
G01*
X144477292Y-96290349D01*
X144576655Y-96300500D01*
X144837769Y-96300499D01*
X144904808Y-96320183D01*
X144925450Y-96336818D01*
X145171586Y-96582954D01*
X145190373Y-96595506D01*
X145245270Y-96632186D01*
X145294505Y-96665084D01*
X145294506Y-96665084D01*
X145294507Y-96665085D01*
X145294509Y-96665086D01*
X145431082Y-96721656D01*
X145431087Y-96721658D01*
X145431091Y-96721658D01*
X145431092Y-96721659D01*
X145576079Y-96750500D01*
X145576082Y-96750500D01*
X145576083Y-96750500D01*
X145723918Y-96750500D01*
X146638769Y-96750500D01*
X146705808Y-96770185D01*
X146751563Y-96822989D01*
X146761507Y-96892147D01*
X146732482Y-96955703D01*
X146726451Y-96962181D01*
X146657288Y-97031344D01*
X146570401Y-97172212D01*
X146561395Y-97186813D01*
X146559600Y-97185706D01*
X146520313Y-97230337D01*
X146454092Y-97249500D01*
X145576080Y-97249500D01*
X145431092Y-97278340D01*
X145431086Y-97278342D01*
X145294508Y-97334914D01*
X145294496Y-97334921D01*
X145245270Y-97367811D01*
X145245271Y-97367812D01*
X145171581Y-97417049D01*
X144925449Y-97663181D01*
X144864126Y-97696666D01*
X144837768Y-97699500D01*
X144576663Y-97699500D01*
X144576644Y-97699501D01*
X144477292Y-97709650D01*
X144477289Y-97709651D01*
X144316305Y-97762996D01*
X144316294Y-97763001D01*
X144171959Y-97852029D01*
X144171955Y-97852032D01*
X144160807Y-97863181D01*
X144099484Y-97896666D01*
X144073126Y-97899500D01*
X141660300Y-97899500D01*
X141593261Y-97879815D01*
X141547506Y-97827011D01*
X141536772Y-97786307D01*
X141535635Y-97773308D01*
X141476739Y-97553504D01*
X141380568Y-97347266D01*
X141268219Y-97186813D01*
X141250045Y-97160858D01*
X141092913Y-97003726D01*
X141059428Y-96942403D01*
X141064412Y-96872711D01*
X141106284Y-96816778D01*
X141152078Y-96795368D01*
X141157480Y-96794091D01*
X141157483Y-96794091D01*
X141292331Y-96743796D01*
X141407546Y-96657546D01*
X141493796Y-96542331D01*
X141544091Y-96407483D01*
X141549062Y-96361242D01*
X141575799Y-96296694D01*
X141633191Y-96256846D01*
X141672351Y-96250500D01*
X144337025Y-96250500D01*
X144376029Y-96256794D01*
G37*
%TD.AperFunction*%
M02*
